<svg width="250" height="233" viewBox="0 0 250 233" fill="none" xmlns="http://www.w3.org/2000/svg">
<path d="M238.874 43.3347L26.6403 39.7482C18.0957 39.6038 11.2374 46.9324 11.7452 55.6648L19.0505 181.292C19.4502 188.168 24.9804 193.553 31.7087 193.62L235.716 195.637C240.755 195.687 244.919 191.624 245.111 186.47L249.992 55.3541C250.233 48.8655 245.216 43.4419 238.874 43.3347Z" fill="url(#paint0_linear_484_2388)"/>
<path d="M235.621 46.5391L28.9267 43.127C20.605 42.9896 13.9258 49.962 14.4203 58.2701L21.5348 177.792C21.9242 184.334 27.31 189.458 33.8627 189.521L232.546 191.441C237.453 191.488 241.508 187.622 241.695 182.718L246.448 57.9745C246.684 51.8012 241.798 46.6411 235.621 46.5391Z" fill="#91B3FA"/>
<path d="M230.968 49.9113L32.2251 46.6621C24.2236 46.5312 17.8014 53.1707 18.2767 61.0818L25.1176 174.895C25.4921 181.124 30.6707 186.004 36.9713 186.064L228.012 187.892C232.73 187.937 236.629 184.256 236.808 179.586L241.379 60.8006C241.605 54.9219 236.908 50.0084 230.968 49.9113Z" fill="#BDD0FB"/>
<g opacity="0.49">
<path d="M204.111 119.102H226.498C229.557 119.102 231.993 121.66 231.844 124.715L229.296 176.744C229.157 179.594 226.805 181.834 223.951 181.834H204.111C201.155 181.834 198.759 179.438 198.759 176.482V124.454C198.759 121.498 201.155 119.102 204.111 119.102Z" fill="white"/>
<path d="M150.265 71.8952L228.833 73.1087C231.859 73.1553 234.244 75.6994 234.096 78.7218L232.788 105.44C232.648 108.29 230.296 110.53 227.442 110.53H150.182C147.226 110.53 144.83 108.134 144.83 105.178V77.2468C144.83 74.2585 147.277 71.8491 150.265 71.8952Z" fill="white"/>
<path d="M147.158 120.361H183.746C186.702 120.361 189.098 122.758 189.098 125.713V177.742C189.098 180.698 186.702 183.094 183.746 183.094H147.158C144.202 183.094 141.806 180.698 141.806 177.742V125.713C141.806 122.758 144.202 120.361 147.158 120.361Z" fill="white"/>
</g>
<g opacity="0.64">
<path d="M107.368 105.596H129.269C130.644 105.596 131.758 106.71 131.758 108.085C131.758 109.46 130.644 110.574 129.269 110.574H107.368C105.994 110.574 104.879 109.46 104.879 108.085C104.879 106.71 105.994 105.596 107.368 105.596Z" fill="white"/>
<path d="M73.9673 105.596H95.8683C97.243 105.596 98.3574 106.71 98.3574 108.085C98.3574 109.46 97.2431 110.574 95.8683 110.574H73.9673C72.5926 110.574 71.4783 109.46 71.4783 108.085C71.4783 106.71 72.5926 105.596 73.9673 105.596Z" fill="white"/>
<path d="M62.4662 110.574H40.5652C39.1905 110.574 38.0762 109.46 38.0762 108.085C38.0762 106.71 39.1905 105.596 40.5652 105.596H62.4662C63.8408 105.596 64.9554 106.71 64.9554 108.085C64.9554 109.46 63.8408 110.574 62.4662 110.574Z" fill="white"/>
<path d="M107.368 113.34H129.269C130.644 113.34 131.758 114.454 131.758 115.829V130.487C131.758 131.861 130.644 132.976 129.269 132.976H107.368C105.994 132.976 104.879 131.861 104.879 130.487V115.829C104.879 114.454 105.994 113.34 107.368 113.34Z" fill="white"/>
<path d="M73.9673 113.34H95.8683C97.243 113.34 98.3574 114.454 98.3574 115.829V130.487C98.3574 131.861 97.2431 132.976 95.8683 132.976H73.9673C72.5926 132.976 71.4783 131.861 71.4783 130.487V115.829C71.4783 114.454 72.5926 113.34 73.9673 113.34Z" fill="white"/>
<path d="M40.5652 113.34H62.4662C63.8408 113.34 64.9554 114.454 64.9554 115.829V130.487C64.9554 131.861 63.8408 132.976 62.4662 132.976H40.5652C39.1905 132.976 38.0762 131.861 38.0762 130.487V115.829C38.0762 114.454 39.1905 113.34 40.5652 113.34Z" fill="white"/>
</g>
<path d="M125.893 181.846H130.427V161.325H125.893V181.846Z" fill="white"/>
<path d="M118.318 181.846H122.852V168.377H118.318V181.846Z" fill="white"/>
<path d="M110.742 181.846H115.276V150.947H110.742V181.846Z" fill="white"/>
<path d="M103.166 181.846H107.7V174.423H103.166V181.846Z" fill="white"/>
<path d="M95.5905 181.846H100.125V155.078H95.5905V181.846Z" fill="white"/>
<path d="M88.0147 181.846H92.5488V159.712H88.0147V181.846Z" fill="white"/>
<path d="M80.4392 181.846H84.9731V164.75H80.4392V181.846Z" fill="white"/>
<path d="M72.8636 181.846H77.3975V144.7H72.8636V181.846Z" fill="white"/>
<path d="M65.2878 181.846H69.8218V148.63H65.2878V181.846Z" fill="white"/>
<path d="M57.7109 181.846H62.2449V154.574H57.7109V181.846Z" fill="white"/>
<path d="M50.1353 181.846H54.6692V175.112H50.1353V181.846Z" fill="white"/>
<path d="M42.5595 181.846H47.0935V162.03H42.5595V181.846Z" fill="white"/>
<path opacity="0.54" d="M118.565 144.688H138.514C139.391 144.688 140.101 145.398 140.101 146.274C140.101 147.151 139.391 147.861 138.514 147.861H118.565C117.689 147.861 116.978 147.151 116.978 146.274C116.978 145.398 117.689 144.688 118.565 144.688Z" fill="white"/>
<path opacity="0.54" d="M118.565 139.727H138.514C139.391 139.727 140.101 140.437 140.101 141.313C140.101 142.19 139.391 142.9 138.514 142.9H118.565C117.689 142.9 116.978 142.19 116.978 141.313C116.978 140.437 117.689 139.727 118.565 139.727Z" fill="white"/>
<path opacity="0.54" d="M82.5745 144.688H102.524C103.4 144.688 104.111 145.398 104.111 146.274C104.111 147.151 103.4 147.861 102.524 147.861H82.5745C81.698 147.861 80.9875 147.151 80.9875 146.274C80.9875 145.398 81.698 144.688 82.5745 144.688Z" fill="white"/>
<path opacity="0.54" d="M82.5745 139.727H102.524C103.4 139.727 104.111 140.437 104.111 141.313C104.111 142.19 103.4 142.9 102.524 142.9H82.5745C81.698 142.9 80.9875 142.19 80.9875 141.313C80.9875 140.437 81.698 139.727 82.5745 139.727Z" fill="white"/>
<path d="M184.749 81.1376H38.9555C35.7293 81.1376 33.114 78.5224 33.114 75.2962V8.15355C33.114 4.96339 35.6733 2.36332 38.863 2.31281L184.913 0.00147074C191.337 -0.100169 196.599 5.07924 196.599 11.5038V69.288C196.599 75.8324 191.294 81.1376 184.749 81.1376Z" fill="#1E3DD7"/>
<path d="M180.971 78.1307H43.9671C40.9355 78.1307 38.4778 75.7744 38.4778 72.8678V12.3753C38.4778 9.50115 40.8828 7.15852 43.8802 7.11302L181.125 5.03062C187.162 4.939 192.107 9.60547 192.107 15.3937V67.4547C192.107 73.3509 187.121 78.1307 180.971 78.1307Z" fill="#3369F4"/>
<path d="M196.625 20.2953V11.5038C196.625 5.07924 191.35 -0.100169 184.926 0.00147074L38.8403 2.31281C35.6506 2.36323 33.0554 4.96348 33.0554 8.15355V20.2953H196.625Z" fill="#91B3FA"/>
<path opacity="0.37" d="M44.5126 13.7534C44.7844 12.6021 44.0715 11.4484 42.9202 11.1765C41.7689 10.9047 40.6152 11.6176 40.3433 12.7689C40.0715 13.9202 40.7844 15.0739 41.9357 15.3458C43.087 15.6176 44.2407 14.9047 44.5126 13.7534Z" fill="white"/>
<path opacity="0.74" d="M68.112 43.14C69.4017 40.77 71.8163 39.1161 74.6467 38.8557L74.8445 27.0117C66.7803 27.0639 59.8422 31.8092 56.7365 38.7393L68.112 43.14Z" fill="white"/>
<path d="M76.9073 38.9447C80.7168 39.604 83.6791 42.7686 84.0328 46.624L95.7097 47.319C95.5614 36.911 87.4661 28.1812 77.1044 27.1191L76.9073 38.9447Z" fill="white"/>
<path opacity="0.74" d="M83.9427 48.8574C83.2526 52.7821 79.8071 55.7311 75.639 55.6795C74.4073 55.6642 73.2352 55.3884 72.1757 54.9051L65.8575 64.9679C68.7775 66.5564 72.1113 67.4637 75.639 67.4794C86.1406 67.5263 94.66 59.645 95.621 49.5349L83.9427 48.8574Z" fill="white"/>
<path opacity="0.74" d="M63.9071 63.766L70.2415 53.6956C68.3324 52.1161 67.112 49.7399 67.112 47.0995C67.112 46.4615 67.1838 45.8416 67.319 45.2465L55.9313 40.8594C55.3321 42.7558 55.0092 44.7781 55.0092 46.881C55.0091 53.8447 58.5404 60.0305 63.9071 63.766Z" fill="white"/>
<path d="M111.57 44.035C112.786 41.733 115.062 40.1255 117.731 39.8708L117.917 28.3691C110.314 28.427 103.775 33.0398 100.848 39.7696L111.57 44.035Z" fill="white"/>
<path opacity="0.74" d="M119.863 39.9608C123.456 40.5986 126.25 43.6702 126.583 47.4146L137.601 48.0837C137.461 37.9727 129.822 29.499 120.049 28.4766L119.863 39.9608Z" fill="white"/>
<path opacity="0.74" d="M126.498 49.5801C125.847 53.3922 122.597 56.2576 118.666 56.2089C117.505 56.1945 116.4 55.927 115.401 55.4582L109.444 65.2306C112.197 66.7723 115.34 67.6529 118.666 67.6678C128.571 67.712 136.61 60.0546 137.517 50.2327L126.498 49.5801Z" fill="white"/>
<path opacity="0.74" d="M107.605 64.0605L113.577 54.2811C111.777 52.7483 110.626 50.4416 110.626 47.8779C110.626 47.2585 110.694 46.6565 110.821 46.0787L100.088 41.8262C99.5237 43.6675 99.2194 45.6306 99.2194 47.672C99.2194 54.4317 102.547 60.4354 107.605 64.0605Z" fill="white"/>
<path opacity="0.74" d="M152.573 44.897C153.722 42.6591 155.872 41.0957 158.393 40.8463L158.569 29.668C151.388 29.7307 145.213 34.2183 142.451 40.759L152.573 44.897Z" fill="white"/>
<path opacity="0.74" d="M160.405 40.9275C163.799 41.5452 166.439 44.5291 166.754 48.1687L177.167 48.8138C177.035 38.9834 169.815 30.7512 160.58 29.7656L160.405 40.9275Z" fill="white"/>
<path d="M166.675 50.2734C166.06 53.9792 162.989 56.7656 159.276 56.7196C158.179 56.706 157.135 56.4465 156.191 55.9911L150.566 65.4893C153.165 66.9871 156.134 67.8425 159.276 67.8564C168.634 67.8982 176.231 60.4524 177.089 50.9028L166.675 50.2734Z" fill="white"/>
<path opacity="0.74" d="M148.83 64.3543L154.469 54.8494C152.769 53.3605 151.683 51.1194 151.683 48.6283C151.683 48.0263 151.747 47.4413 151.867 46.8797L141.734 42.7539C141.201 44.5431 140.914 46.4506 140.914 48.4338C140.914 55.0012 144.055 60.833 148.83 64.3543Z" fill="white"/>
<path d="M37.8654 222.598C37.8654 222.598 37.2487 226.088 36.9464 229.544C36.8282 230.894 37.8694 232.067 39.224 232.123C43.8256 232.315 53.6688 232.688 57.2009 232.53C57.7319 232.506 58.0791 231.963 57.8826 231.469C57.7179 231.055 57.4003 230.721 56.9957 230.535L40.7365 223.062L37.8654 222.598Z" fill="#1F33AE"/>
<path d="M37.3596 220.547L37.855 224.723C37.855 224.723 40.7032 226.048 42.6483 224.555L41.4688 219.902L37.3596 220.547Z" fill="url(#paint1_linear_484_2388)"/>
<path d="M37.7324 142.043C37.5184 143.134 36.5838 196.456 42.2836 220.352C42.3766 220.742 42.1789 221.144 41.8079 221.295C40.9337 221.653 39.2198 222.17 37.1659 222.239C36.5298 222.26 35.9595 221.847 35.78 221.236C34.1507 215.692 26.3436 187.914 25.3251 161.379C24.1871 131.728 25.3251 160.369 25.3251 160.369L25.9926 142.041L37.7324 142.043Z" fill="url(#paint2_linear_484_2388)"/>
<path d="M19.1624 224.414C19.1624 224.414 18.1809 226.176 17.2306 230.859C17.0591 231.705 17.65 232.514 18.5088 232.599C20.0283 232.748 22.3674 232.94 24.2412 232.927C25.105 232.921 25.7791 232.169 25.6749 231.312C25.4674 229.602 24.8208 226.798 22.8234 224.612L19.1624 224.414Z" fill="#1F33AE"/>
<path d="M18.2996 219.044L19.4572 225.358C19.4572 225.358 20.6018 226.21 22.8659 225.593L22.3135 218.799L18.2996 219.044Z" fill="url(#paint3_linear_484_2388)"/>
<path d="M15.1722 143.674C10.5106 171.807 16.1834 213.208 18.0966 221.311C18.2137 221.807 18.6141 222.187 19.117 222.27C19.9709 222.412 21.377 222.527 22.7631 222.125C23.2406 221.986 23.5762 221.555 23.5957 221.058C23.8524 214.507 23.3904 174.29 27.7341 158.396C27.9541 157.59 28.4461 156.888 29.1266 156.404L37.5572 150.41L38.2035 140.723L15.1722 143.674Z" fill="url(#paint4_linear_484_2388)"/>
<path d="M44.8775 90.3794C30.9074 90.1486 15.493 94.0475 15.493 94.0475C11.3289 118.345 14.7648 146.371 14.7648 146.371C25.5801 149.208 37.7804 144.637 37.7804 144.637C39.578 134.481 47.965 105.899 47.965 105.899C54.7908 105.052 60.4137 103.083 65.0443 100.479C61.5122 96.3849 59.8471 91.1753 59.1239 88.0957C54.1844 89.6308 49.1864 90.4507 44.8775 90.3794Z" fill="url(#paint5_linear_484_2388)"/>
<path d="M86.1425 69.7989C84.7701 68.1414 83.0332 68.9256 83.0332 68.9256C80.9774 77.6096 70.1979 84.6507 59.1235 88.0924C59.8467 91.172 61.5118 96.3816 65.0439 100.476C83.423 90.1421 86.1425 69.7989 86.1425 69.7989Z" fill="url(#paint6_linear_484_2388)"/>
<path d="M85.8083 70.2148C85.9519 70.6714 84.2891 71.3665 83.3099 69.4994C83.2756 68.6046 82.7316 64.7711 83.2662 64.0422C86.1139 60.1598 91.635 55.293 91.635 55.293C92.5681 56.2136 91.7994 57.1182 91.7994 57.1182L89.121 59.9083C89.6812 60.9207 90.3645 61.7753 90.6848 62.9998C90.9275 63.9271 90.7791 64.9181 90.3107 65.7621C89.8405 66.609 89.1991 67.7101 88.5927 68.5718C87.445 70.2026 85.8083 70.2148 85.8083 70.2148Z" fill="url(#paint7_linear_484_2388)"/>
<path d="M87.9495 61.7188L85.5087 63.7878L84.7424 65.8479L86.9186 68.2621C86.9186 68.2621 87.6503 64.1746 88.1941 63.29C88.7379 62.4052 88.4559 61.9775 87.9495 61.7188Z" fill="url(#paint8_linear_484_2388)"/>
<path d="M20.8511 107.57L15.4927 94.043C15.4927 94.043 2.4439 102.909 0.297852 114.15C2.76339 114.332 7.25001 114.973 11.6415 117.191C12.6066 111.883 20.8511 107.57 20.8511 107.57Z" fill="url(#paint9_linear_484_2388)"/>
<path d="M32.2539 120.299C32.2539 120.299 17.6034 128.579 12.66 121.509C11.6337 120.041 11.3883 118.582 11.6411 117.191C7.24962 114.973 2.76308 114.332 0.297456 114.15C-0.349568 117.539 -0.00746053 121.144 1.98385 124.786C10.6429 140.626 34.1926 123.911 34.1926 123.911L32.2539 120.299Z" fill="url(#paint10_linear_484_2388)"/>
<path d="M30.4935 130.77L38.4893 102.847C38.58 102.53 38.8503 102.299 39.178 102.261C40.6267 102.092 44.8243 101.618 49.6711 101.208C55.5091 100.714 62.2888 100.314 66.3401 100.654C66.9161 100.702 67.2642 101.312 67.008 101.83C64.7042 106.491 55.2277 125.45 50.4822 131.661C50.3249 131.867 50.0818 131.987 49.8228 131.985L31.2714 131.812C30.7315 131.807 30.3449 131.289 30.4935 130.77Z" fill="#1F33AE"/>
<path d="M32.4253 124.022C32.4253 124.022 31.3116 119.442 31.7608 117.818C32.2102 116.193 33.0806 114.104 35.9822 114.568C38.8838 115.032 42.3065 116.254 42.3065 116.254C42.3065 116.254 42.1336 118.371 39.9283 117.688L41.2959 118.746C41.2959 118.746 41.1005 120.441 39.2377 119.535L40.5097 120.939C40.5097 120.939 39.7097 122.33 38.3393 121.438C36.9688 120.545 36.3119 124.574 32.4253 124.022Z" fill="url(#paint11_linear_484_2388)"/>
<path d="M30.7258 79.0332L26.2807 91.888C26.2072 92.101 26.2946 92.3368 26.4918 92.4459C27.7034 93.1158 32.0689 95.0522 37.3297 91.7168C37.8777 91.3693 38.2508 90.8026 38.334 90.159L39.7734 79.0332H30.7258Z" fill="url(#paint12_linear_484_2388)"/>
<path d="M39.8811 64.6644C40.0116 64.8493 44.0033 79.2695 44.0033 79.2695L35.7211 81.3737L29.9072 68.2684C29.9072 68.2684 37.6963 61.5692 39.8811 64.6644Z" fill="url(#paint13_linear_484_2388)"/>
<path d="M33.0262 70.262L35.5465 77.4005C35.5788 77.4921 35.6221 77.5767 35.678 77.6561C36.02 78.1421 37.3192 79.7276 38.8604 78.2994C40.2587 77.0035 41.5543 75.8415 42.7506 75.6307C43.2879 75.5359 43.8082 75.8637 43.9536 76.3895C44.3159 77.6997 45.0778 80.6674 45.3463 83.3468C45.4008 83.8905 45.0254 84.3818 44.4886 84.4838C42.871 84.7911 39.4412 85.3435 36.578 85.1416C36.19 85.1142 35.8485 84.8815 35.6867 84.5278C34.8978 82.8036 32.48 77.572 31.5808 76.2184C30.7369 74.9479 28.6679 74.9835 27.8002 75.0604C27.5157 75.0856 27.2359 74.994 27.0212 74.8057C26.2621 74.1403 24.8174 72.4416 26.8497 70.4079C27.275 69.9823 27.2635 69.2957 26.8252 68.8834C25.9524 68.0628 25.019 66.6074 26.4731 64.8024C27.9511 62.9678 29.9021 63.2598 31.0973 63.6959C31.5807 63.8724 32.1079 63.668 32.3706 63.2256C32.5202 62.9738 32.7811 62.7832 33.2335 62.8221C33.8431 62.8746 34.3558 62.3659 34.3448 61.7541C34.3236 60.5787 34.7445 59.0937 36.7834 58.4592C40.4013 57.3331 42.6576 60.8284 42.8811 63.4366C43.1045 66.0448 39.1125 67.0426 36.7652 66.8667C34.9804 66.733 33.6553 68.5019 33.1226 69.3576C32.9536 69.6286 32.9199 69.9609 33.0262 70.262Z" fill="#1F33AE"/>
<path d="M32.5238 78.8137C32.5238 78.8137 31.9394 74.2859 30.0558 74.064C28.1722 73.8422 26.339 75.3902 28.2116 77.9316C30.5409 81.0929 32.5238 78.8137 32.5238 78.8137Z" fill="url(#paint14_linear_484_2388)"/>
<path d="M234.196 183.184C234.975 184.336 238.071 210.434 238.556 220.073C238.589 220.725 238.067 221.268 237.415 221.268C236.852 221.268 236.373 220.858 236.286 220.302L230.623 184.014L234.196 183.184Z" fill="url(#paint15_linear_484_2388)"/>
<path d="M209.305 183.184C208.526 184.336 205.431 210.434 204.946 220.073C204.913 220.725 205.435 221.268 206.087 221.268C206.65 221.268 207.129 220.858 207.216 220.302L212.879 184.014L209.305 183.184Z" fill="url(#paint16_linear_484_2388)"/>
<path d="M238.88 181.143L238.883 181.428C238.902 183.475 237.138 185.155 234.929 185.192L208.755 185.638C206.578 185.675 204.763 184.102 204.658 182.086L204.644 181.825C204.534 179.723 206.319 177.952 208.589 177.911L234.775 177.442C237.016 177.402 238.861 179.066 238.88 181.143Z" fill="url(#paint17_linear_484_2388)"/>
<path d="M187.96 219.132C192.612 219.132 194.671 218.733 195.592 218.369C195.413 219.133 194.732 219.736 193.872 219.736H177.412C176.857 219.736 176.508 219.206 176.64 218.725C178.516 218.876 182.501 219.132 187.96 219.132Z" fill="#1F33AE"/>
<path d="M176.64 218.722C176.667 218.626 176.706 218.53 176.775 218.442C178.029 216.842 180.547 214.327 183.974 214.376C188.993 214.446 190.743 214.991 194.644 214.406L195.564 217.456C195.657 217.767 195.659 218.078 195.592 218.366C194.671 218.73 192.613 219.129 187.96 219.129C182.501 219.129 178.516 218.873 176.64 218.722Z" fill="#1F33AE"/>
<path d="M193.515 211.113L194.644 214.955C194.644 214.955 192.142 216.094 189.941 215.179L189.509 211.851L193.515 211.113Z" fill="url(#paint18_linear_484_2388)"/>
<path d="M159.399 216.703C163.026 219.617 164.879 220.597 165.824 220.891C165.208 221.372 164.301 221.413 163.631 220.875L150.799 210.565C150.367 210.217 150.425 209.587 150.828 209.297C152.197 210.589 155.144 213.284 159.399 216.703Z" fill="#1F33AE"/>
<path d="M150.828 209.301C150.91 209.242 151 209.193 151.108 209.168C153.083 208.711 156.614 208.338 159.255 210.522C163.124 213.721 164.148 215.239 167.553 217.229L166.369 220.171C166.249 220.471 166.056 220.713 165.824 220.895C164.879 220.601 163.026 219.621 159.399 216.706C155.144 213.288 152.197 210.593 150.828 209.301Z" fill="#1F33AE"/>
<path d="M217.676 167.354C217.676 167.354 189.819 169.628 184.104 172.318C178.39 175.008 188.768 212.712 188.768 212.712C188.768 212.712 190.324 213.461 193.785 212.385C193.785 212.385 190.236 184.561 192.877 178.527L223.039 173.594L217.676 167.354Z" fill="#1F33AE"/>
<path d="M170.32 211.936C170.061 212.172 167.552 217.233 167.552 217.233C167.552 217.233 164.759 216.628 164.189 214.86L166.702 210.293L170.32 211.936Z" fill="url(#paint19_linear_484_2388)"/>
<path d="M234.455 167.119C234.455 167.119 235.363 169.303 235.326 172.206C235.274 176.221 232.047 179.478 228.037 179.678L195.106 181.18C194.41 181.212 193.822 181.693 193.648 182.367C192.874 185.36 189.091 194.552 170.602 212.894C170.11 213.382 169.343 213.465 168.757 213.095L166.125 211.432C165.849 211.258 165.761 210.896 165.926 210.613L185.1 177.87C186.107 176.208 187.726 175.008 189.609 174.526L217.677 167.352L234.455 167.119Z" fill="#1F33AE"/>
<path d="M202.001 115.967C202.001 115.967 205.529 122.204 209.125 125.226L201.691 129.374C201.691 129.374 200.016 122.771 196.188 120.837L202.001 115.967Z" fill="url(#paint20_linear_484_2388)"/>
<path d="M235.053 167.346C235.053 167.346 226.163 169.513 217.677 167.346C217.677 167.346 205.803 151.384 201.209 147.039C201.209 147.039 193.881 158.602 177.572 160.241L176.662 158.208C176.662 158.208 189.646 152.223 193.643 143.026C197.641 133.829 199.246 129.907 202.883 127.507C205.148 126.013 206.504 124.992 207.205 124.434C207.588 124.129 208.118 124.095 208.536 124.35C212.396 126.702 230.555 139.139 235.053 167.346Z" fill="url(#paint21_linear_484_2388)"/>
<path d="M206.085 138.457C206.085 138.457 204.504 142.577 201.691 146.246L206.085 138.457Z" fill="url(#paint22_linear_484_2388)"/>
<path d="M178.552 157.149L176.716 156.66L171.142 155.369C170.471 155.214 169.766 155.333 169.183 155.7L164.39 158.715L177.625 158.693L178.552 157.149Z" fill="url(#paint23_linear_484_2388)"/>
<path d="M196.4 106.611C196.4 106.611 192.971 112.31 192.376 115.46C191.781 118.61 190.826 120.579 194.411 121.702C197.996 122.824 201.328 121.404 203.419 118.463C203.419 118.463 206.684 113.938 206.359 111.866C206.033 109.794 196.4 106.611 196.4 106.611Z" fill="url(#paint24_linear_484_2388)"/>
<path d="M202.465 116.028L202.001 115.967C202.001 115.967 204.429 112.298 202.84 111.388C201.251 110.478 194.778 108.245 193.654 105.696C192.57 103.238 194.191 100.462 196.146 99.8825C196.27 99.8459 196.4 99.9189 196.445 100.04L196.56 100.349C196.638 100.561 196.935 100.57 197.026 100.363C197.112 100.166 197.393 100.158 197.481 100.353C197.828 101.117 198.866 102.422 201.979 103.431C206.396 104.863 209.148 107.089 208.809 110.228C208.788 110.427 208.985 110.564 209.168 110.483C209.529 110.323 210.077 110.298 210.712 110.993C211.818 112.202 210.952 114.847 207.933 116.718C207.789 116.807 207.764 117.009 207.892 117.119C208.343 117.506 208.979 118.368 206.936 119.137C204.847 119.923 203.707 119.657 203.285 119.488C203.172 119.443 203.107 119.325 203.131 119.205L203.667 116.455C203.695 116.313 203.597 116.177 203.453 116.158L202.465 116.028Z" fill="#1F33AE"/>
<path d="M202.275 116.595C202.275 116.595 203.788 112.865 205.377 114.176C206.965 115.487 203.908 118.385 202.497 118.346L202.275 116.595Z" fill="url(#paint25_linear_484_2388)"/>
<path d="M183.664 161.313C183.642 161.314 183.621 161.315 183.599 161.315L155.324 161.286C154.625 161.286 154.059 160.72 154.06 160.022C154.061 159.324 154.63 158.747 155.327 158.76L183.602 158.788C184.301 158.789 184.867 159.355 184.866 160.053C184.865 160.729 184.333 161.28 183.664 161.313Z" fill="url(#paint26_linear_484_2388)"/>
<path d="M171.075 162.734C171.199 163.246 182.997 207.494 185.988 218.711C186.333 220.004 185.37 221.273 184.047 221.273C183.124 221.273 182.32 220.638 182.097 219.732L169 166.633L171.075 162.734Z" fill="url(#paint27_linear_484_2388)"/>
<path d="M164.614 162.734C164.491 163.246 152.693 207.494 149.702 218.711C149.357 220.004 150.32 221.273 151.643 221.273C152.566 221.273 153.37 220.638 153.593 219.732L166.69 166.633L164.614 162.734Z" fill="url(#paint28_linear_484_2388)"/>
<path d="M164.122 161.289H171.47V167.19C171.47 168.038 170.791 168.725 169.953 168.725H168.945V181.979C168.945 182.621 168.431 183.142 167.796 183.142C167.162 183.142 166.648 182.621 166.648 181.979V168.725H166.136C165.024 168.725 164.122 167.813 164.122 166.687V161.289Z" fill="url(#paint29_linear_484_2388)"/>
<path d="M189.537 159.873H148.509C147.936 159.873 147.435 160.266 147.292 160.828L146.719 163.074C146.513 163.882 147.119 164.669 147.944 164.664L190.042 164.419C190.858 164.415 191.454 163.637 191.255 162.836L190.756 160.835C190.616 160.269 190.113 159.873 189.537 159.873Z" fill="#1F33AE"/>
<path d="M179.588 132.884V152.356C179.588 155.4 177.12 157.868 174.076 157.868H147.407C144.28 157.868 141.745 155.333 141.745 152.207V122.889C141.745 120.421 144.791 119.258 146.436 121.096L151.59 126.856C153.574 129.073 156.931 129.385 159.29 127.571L159.783 127.192C161.602 125.793 164.151 125.855 165.899 127.341L168.721 129.741C170.894 131.589 173.93 132.036 176.543 130.892C177.98 130.264 179.588 131.316 179.588 132.884Z" fill="white"/>
<defs>
<linearGradient id="paint0_linear_484_2388" x1="36.6334" y1="43.5699" x2="224.4" y2="186.536" gradientUnits="userSpaceOnUse">
<stop stop-color="#09005D"/>
<stop offset="1" stop-color="#1A0F91"/>
</linearGradient>
<linearGradient id="paint1_linear_484_2388" x1="37.3596" y1="222.584" x2="42.6483" y2="222.584" gradientUnits="userSpaceOnUse">
<stop stop-color="#FEBBBA"/>
<stop offset="1" stop-color="#FF928E"/>
</linearGradient>
<linearGradient id="paint2_linear_484_2388" x1="61.3743" y1="144.529" x2="10.711" y2="213.196" gradientUnits="userSpaceOnUse">
<stop stop-color="#4F52FF"/>
<stop offset="1" stop-color="#4042E2"/>
</linearGradient>
<linearGradient id="paint3_linear_484_2388" x1="18.2995" y1="222.308" x2="22.8659" y2="222.308" gradientUnits="userSpaceOnUse">
<stop stop-color="#FEBBBA"/>
<stop offset="1" stop-color="#FF928E"/>
</linearGradient>
<linearGradient id="paint4_linear_484_2388" x1="52.3445" y1="137.861" x2="1.68123" y2="206.528" gradientUnits="userSpaceOnUse">
<stop stop-color="#4F52FF"/>
<stop offset="1" stop-color="#4042E2"/>
</linearGradient>
<linearGradient id="paint5_linear_484_2388" x1="-485.342" y1="955.54" x2="-449.648" y2="897.255" gradientUnits="userSpaceOnUse">
<stop stop-color="#FF928E"/>
<stop offset="1" stop-color="#FE7062"/>
</linearGradient>
<linearGradient id="paint6_linear_484_2388" x1="81.9761" y1="53.1281" x2="72.6449" y2="79.7887" gradientUnits="userSpaceOnUse">
<stop stop-color="#FEBBBA"/>
<stop offset="1" stop-color="#FF928E"/>
</linearGradient>
<linearGradient id="paint7_linear_484_2388" x1="89.9505" y1="55.9139" x2="80.6194" y2="82.5744" gradientUnits="userSpaceOnUse">
<stop stop-color="#FEBBBA"/>
<stop offset="1" stop-color="#FF928E"/>
</linearGradient>
<linearGradient id="paint8_linear_484_2388" x1="82.782" y1="72.9473" x2="89.8108" y2="58.7686" gradientUnits="userSpaceOnUse">
<stop stop-color="#FEBBBA"/>
<stop offset="1" stop-color="#FF928E"/>
</linearGradient>
<linearGradient id="paint9_linear_484_2388" x1="-501.445" y1="945.676" x2="-465.751" y2="887.39" gradientUnits="userSpaceOnUse">
<stop stop-color="#FF928E"/>
<stop offset="1" stop-color="#FE7062"/>
</linearGradient>
<linearGradient id="paint10_linear_484_2388" x1="3.79782e-05" y1="122.878" x2="34.1927" y2="122.878" gradientUnits="userSpaceOnUse">
<stop stop-color="#FEBBBA"/>
<stop offset="1" stop-color="#FF928E"/>
</linearGradient>
<linearGradient id="paint11_linear_484_2388" x1="31.6541" y1="119.288" x2="42.3065" y2="119.288" gradientUnits="userSpaceOnUse">
<stop stop-color="#FEBBBA"/>
<stop offset="1" stop-color="#FF928E"/>
</linearGradient>
<linearGradient id="paint12_linear_484_2388" x1="26.2548" y1="86.3241" x2="39.7734" y2="86.3241" gradientUnits="userSpaceOnUse">
<stop stop-color="#FEBBBA"/>
<stop offset="1" stop-color="#FF928E"/>
</linearGradient>
<linearGradient id="paint13_linear_484_2388" x1="37.1863" y1="66.6881" x2="36.2582" y2="95.1387" gradientUnits="userSpaceOnUse">
<stop stop-color="#FEBBBA"/>
<stop offset="1" stop-color="#FF928E"/>
</linearGradient>
<linearGradient id="paint14_linear_484_2388" x1="38.5416" y1="69.4309" x2="2.69505" y2="101.06" gradientUnits="userSpaceOnUse">
<stop stop-color="#FEBBBA"/>
<stop offset="1" stop-color="#FF928E"/>
</linearGradient>
<linearGradient id="paint15_linear_484_2388" x1="224.834" y1="178.23" x2="251.705" y2="239.045" gradientUnits="userSpaceOnUse">
<stop stop-color="#4F52FF"/>
<stop offset="1" stop-color="#4042E2"/>
</linearGradient>
<linearGradient id="paint16_linear_484_2388" x1="202.654" y1="188.031" x2="229.526" y2="248.846" gradientUnits="userSpaceOnUse">
<stop stop-color="#4F52FF"/>
<stop offset="1" stop-color="#4042E2"/>
</linearGradient>
<linearGradient id="paint17_linear_484_2388" x1="228.032" y1="157.221" x2="216.728" y2="201.081" gradientUnits="userSpaceOnUse">
<stop stop-color="#4F52FF"/>
<stop offset="1" stop-color="#4042E2"/>
</linearGradient>
<linearGradient id="paint18_linear_484_2388" x1="194.644" y1="213.324" x2="189.509" y2="213.324" gradientUnits="userSpaceOnUse">
<stop stop-color="#FEBBBA"/>
<stop offset="1" stop-color="#FF928E"/>
</linearGradient>
<linearGradient id="paint19_linear_484_2388" x1="170.32" y1="213.763" x2="164.189" y2="213.763" gradientUnits="userSpaceOnUse">
<stop stop-color="#FEBBBA"/>
<stop offset="1" stop-color="#FF928E"/>
</linearGradient>
<linearGradient id="paint20_linear_484_2388" x1="204.375" y1="127.364" x2="201.352" y2="119.742" gradientUnits="userSpaceOnUse">
<stop stop-color="#FEBBBA"/>
<stop offset="1" stop-color="#FF928E"/>
</linearGradient>
<linearGradient id="paint21_linear_484_2388" x1="235.097" y1="117.84" x2="192.174" y2="183.806" gradientUnits="userSpaceOnUse">
<stop stop-color="#FF928E"/>
<stop offset="1" stop-color="#FE7062"/>
</linearGradient>
<linearGradient id="paint22_linear_484_2388" x1="217.069" y1="92.3914" x2="204.618" y2="139.585" gradientUnits="userSpaceOnUse">
<stop stop-color="#FF928E"/>
<stop offset="1" stop-color="#FE7062"/>
</linearGradient>
<linearGradient id="paint23_linear_484_2388" x1="178.552" y1="157.009" x2="164.39" y2="157.009" gradientUnits="userSpaceOnUse">
<stop stop-color="#FEBBBA"/>
<stop offset="1" stop-color="#FF928E"/>
</linearGradient>
<linearGradient id="paint24_linear_484_2388" x1="195.147" y1="111.86" x2="208.676" y2="125.355" gradientUnits="userSpaceOnUse">
<stop stop-color="#FEBBBA"/>
<stop offset="1" stop-color="#FF928E"/>
</linearGradient>
<linearGradient id="paint25_linear_484_2388" x1="197.335" y1="109.671" x2="210.864" y2="123.165" gradientUnits="userSpaceOnUse">
<stop stop-color="#FEBBBA"/>
<stop offset="1" stop-color="#FF928E"/>
</linearGradient>
<linearGradient id="paint26_linear_484_2388" x1="3213.31" y1="-3082.64" x2="3163.35" y2="-3029.22" gradientUnits="userSpaceOnUse">
<stop stop-color="#4F52FF"/>
<stop offset="1" stop-color="#4042E2"/>
</linearGradient>
<linearGradient id="paint27_linear_484_2388" x1="176.176" y1="224.881" x2="173.347" y2="291.589" gradientUnits="userSpaceOnUse">
<stop stop-color="#4F52FF"/>
<stop offset="1" stop-color="#4042E2"/>
</linearGradient>
<linearGradient id="paint28_linear_484_2388" x1="156.84" y1="224.061" x2="154.011" y2="290.769" gradientUnits="userSpaceOnUse">
<stop stop-color="#4F52FF"/>
<stop offset="1" stop-color="#4042E2"/>
</linearGradient>
<linearGradient id="paint29_linear_484_2388" x1="165.245" y1="224.419" x2="162.417" y2="291.127" gradientUnits="userSpaceOnUse">
<stop stop-color="#4F52FF"/>
<stop offset="1" stop-color="#4042E2"/>
</linearGradient>
</defs>
</svg>
