<svg width="153" height="60" viewBox="0 0 153 60" fill="none" xmlns="http://www.w3.org/2000/svg">
<path d="M23.7249 6.01097C23.9635 6.08489 24.2022 6.15882 24.4481 6.23499C26.6041 6.99654 29.9639 8.78983 30.9924 10.8615C31.0606 11.5961 30.6559 12.0971 30.2653 12.7014C30.1439 12.8959 30.1439 12.8959 30.0201 13.0944C29.761 13.5084 29.4983 13.9202 29.2355 14.332C29.0599 14.6108 28.8846 14.8898 28.7096 15.1689C28.3893 15.6793 28.0674 16.1888 27.7441 16.6975C27.5408 17.0213 27.3427 17.3486 27.1656 17.686C27.0237 17.686 26.8818 17.686 26.7355 17.686C26.4627 17.3145 26.2056 16.9326 25.956 16.5466C24.5349 14.4861 22.9497 13.4023 20.4992 12.5654C17.547 12.0405 14.7466 12.208 12.1661 13.7431C9.83443 15.3575 8.30209 17.3881 7.81133 20.1439C7.74653 21.0582 7.74444 21.9708 7.74277 22.887C7.74076 23.1617 7.73858 23.4364 7.73622 23.711C7.73038 24.4523 7.7271 25.1936 7.7243 25.935C7.72093 26.7113 7.71517 27.4877 7.70967 28.264C7.69963 29.7322 7.69172 31.2003 7.68458 32.6685C7.67634 34.3408 7.66572 36.0131 7.65491 37.6854C7.63272 41.1236 7.61383 44.5618 7.59629 48C5.11248 48 2.62868 48 0.0696141 48C0.0550021 44.4246 0.043139 40.8492 0.0361884 37.2738C0.0328741 35.6134 0.0283618 33.953 0.0209448 32.2925C0.0144768 30.8438 0.0103436 29.3951 0.00891367 27.9464C0.00807896 27.1807 0.00614274 26.4149 0.00140262 25.6492C-0.0349689 19.5299 0.608015 14.3747 5.23076 9.69781C10.4458 5.08703 17.0688 3.89624 23.7249 6.01097Z" fill="#0099FF"/>
<path d="M33.0545 15C33.1989 15 33.3432 15 33.4919 15C35.3895 18.0447 35.2721 22.5856 34.3666 25.931C32.957 30.0998 30.04 33.7719 25.8382 35.8499C21.4492 37.9256 16.5087 38.6964 11.7319 37.2755C10.7988 36.9772 9.90924 36.6155 9 36.2548C9 33.3823 9 30.5099 9 27.5504C9.57731 27.9512 10.1546 28.352 10.7494 28.765C11.0654 28.9837 11.3837 29.1997 11.7061 29.4102C11.8476 29.5049 11.9892 29.5997 12.1349 29.6973C13.7403 30.4752 15.3796 30.7002 17.1731 30.688C17.3736 30.6869 17.5741 30.6857 17.7806 30.6845C20.6956 30.6137 22.8366 29.4035 24.8268 27.4872C26.0831 26.0848 27.0253 24.4573 28.025 22.8946C28.2817 22.4954 28.5387 22.0963 28.7957 21.6972C29.6222 20.4138 30.4472 19.1296 31.2701 17.8442C31.3488 17.7214 31.4276 17.5986 31.5087 17.4721C32.0329 16.6526 32.5459 15.8278 33.0545 15Z" fill="#0099FF"/>
<path d="M39.784 35.16C39.784 33.5547 40.0827 32.1453 40.68 30.932C41.296 29.7187 42.1267 28.7853 43.172 28.132C44.2173 27.4787 45.384 27.152 46.672 27.152C47.7733 27.152 48.7347 27.376 49.556 27.824C50.396 28.272 51.04 28.86 51.488 29.588V27.376H56.276V43H51.488V40.788C51.0213 41.516 50.368 42.104 49.528 42.552C48.7067 43 47.7453 43.224 46.644 43.224C45.3747 43.224 44.2173 42.8973 43.172 42.244C42.1267 41.572 41.296 40.6293 40.68 39.416C40.0827 38.184 39.784 36.7653 39.784 35.16ZM51.488 35.188C51.488 33.9933 51.152 33.0507 50.48 32.36C49.8267 31.6693 49.024 31.324 48.072 31.324C47.12 31.324 46.308 31.6693 45.636 32.36C44.9827 33.032 44.656 33.9653 44.656 35.16C44.656 36.3547 44.9827 37.3067 45.636 38.016C46.308 38.7067 47.12 39.052 48.072 39.052C49.024 39.052 49.8267 38.7067 50.48 38.016C51.152 37.3253 51.488 36.3827 51.488 35.188ZM75.6999 27.376L65.8999 50.42H60.7479L64.3319 42.468L57.9759 27.376H63.3239L66.9359 37.148L70.5199 27.376H75.6999ZM82.2193 22.28V43H77.4313V22.28H82.2193ZM92.8011 43.224C91.2705 43.224 89.8891 42.8973 88.6571 42.244C87.4438 41.5907 86.4825 40.6573 85.7731 39.444C85.0825 38.2307 84.7371 36.812 84.7371 35.188C84.7371 33.5827 85.0918 32.1733 85.8011 30.96C86.5105 29.728 87.4811 28.7853 88.7131 28.132C89.9451 27.4787 91.3265 27.152 92.8571 27.152C94.3878 27.152 95.7691 27.4787 97.0011 28.132C98.2331 28.7853 99.2038 29.728 99.9131 30.96C100.622 32.1733 100.977 33.5827 100.977 35.188C100.977 36.7933 100.613 38.212 99.8851 39.444C99.1758 40.6573 98.1958 41.5907 96.9451 42.244C95.7131 42.8973 94.3318 43.224 92.8011 43.224ZM92.8011 39.08C93.7158 39.08 94.4905 38.744 95.1251 38.072C95.7785 37.4 96.1051 36.4387 96.1051 35.188C96.1051 33.9373 95.7878 32.976 95.1531 32.304C94.5371 31.632 93.7718 31.296 92.8571 31.296C91.9238 31.296 91.1491 31.632 90.5331 32.304C89.9171 32.9573 89.6091 33.9187 89.6091 35.188C89.6091 36.4387 89.9078 37.4 90.5051 38.072C91.1211 38.744 91.8865 39.08 92.8011 39.08ZM110.629 43.224C109.099 43.224 107.717 42.8973 106.485 42.244C105.272 41.5907 104.311 40.6573 103.601 39.444C102.911 38.2307 102.565 36.812 102.565 35.188C102.565 33.5827 102.92 32.1733 103.629 30.96C104.339 29.728 105.309 28.7853 106.541 28.132C107.773 27.4787 109.155 27.152 110.685 27.152C112.216 27.152 113.597 27.4787 114.829 28.132C116.061 28.7853 117.032 29.728 117.741 30.96C118.451 32.1733 118.805 33.5827 118.805 35.188C118.805 36.7933 118.441 38.212 117.713 39.444C117.004 40.6573 116.024 41.5907 114.773 42.244C113.541 42.8973 112.16 43.224 110.629 43.224ZM110.629 39.08C111.544 39.08 112.319 38.744 112.953 38.072C113.607 37.4 113.933 36.4387 113.933 35.188C113.933 33.9373 113.616 32.976 112.981 32.304C112.365 31.632 111.6 31.296 110.685 31.296C109.752 31.296 108.977 31.632 108.361 32.304C107.745 32.9573 107.437 33.9187 107.437 35.188C107.437 36.4387 107.736 37.4 108.333 38.072C108.949 38.744 109.715 39.08 110.629 39.08ZM143.773 27.376L139.545 43H134.253L131.789 32.864L129.241 43H123.977L119.721 27.376H124.509L126.721 38.548L129.353 27.376H134.421L137.081 38.492L139.265 27.376H143.773Z" fill="#3369F4"/>
<path d="M41 0C40.8649 4.00749 40.6172 8.00085 40.3077 12C39.4164 11.8306 38.9232 11.5133 38.2163 10.9914C38.0185 10.8468 37.8207 10.7023 37.6169 10.5533C37.4387 10.4163 37.2605 10.2792 37.0769 10.1379C36.938 10.0489 36.7991 9.95977 36.6559 9.868C36.1997 9.27826 36.3713 8.71224 36.4423 8.01724C36.4673 7.75161 36.4923 7.48597 36.518 7.21228C36.6098 6.45959 36.7207 5.71412 36.8462 4.96552C36.5817 5.07007 36.3172 5.17461 36.0448 5.28233C35.6918 5.41824 35.3387 5.55401 34.9856 5.68966C34.812 5.75873 34.6384 5.82781 34.4596 5.89898C33.3761 6.31107 32.5043 6.56195 31.3077 6.41379C30.6451 6.08082 30.6451 6.08082 30.0529 5.63793C29.8533 5.49391 29.6537 5.34989 29.448 5.20151C29 4.75862 29 4.75862 29 3.93103C30.1693 3.50367 31.3388 3.07687 32.5086 2.65056C32.9054 2.50584 33.3022 2.36098 33.6989 2.21596C39.7617 0 39.7617 0 41 0Z" fill="#3369F4"/>
</svg>
