<svg width="316" height="121" viewBox="0 0 316 121" fill="none" xmlns="http://www.w3.org/2000/svg">
<g filter="url(#filter0_f_510_4177)">
<path d="M22 21.5879C21.9437 23.3559 21.8405 25.1177 21.7115 26.882C21.3402 26.8073 21.1347 26.6673 20.8401 26.437C20.7577 26.3733 20.6753 26.3095 20.5904 26.2438C20.5161 26.1833 20.4419 26.1228 20.3654 26.0605C20.3075 26.0212 20.2496 25.9819 20.19 25.9414C19.9999 25.6812 20.0714 25.4315 20.101 25.1249C20.1114 25.0077 20.1218 24.8905 20.1325 24.7698C20.1708 24.4377 20.217 24.1088 20.2692 23.7786C20.159 23.8247 20.0489 23.8708 19.9353 23.9183C19.7882 23.9783 19.6411 24.0382 19.494 24.098C19.4217 24.1285 19.3493 24.159 19.2748 24.1904C18.8234 24.3722 18.4601 24.4829 17.9615 24.4175C17.6855 24.2706 17.6855 24.2706 17.4387 24.0752C17.3555 24.0117 17.2724 23.9481 17.1867 23.8827C17 23.6873 17 23.6873 17 23.3222C17.4872 23.1336 17.9745 22.9453 18.4619 22.7573C18.6273 22.6934 18.7926 22.6295 18.9579 22.5655C21.484 21.5879 21.484 21.5879 22 21.5879Z" fill="#08875D"/>
<path d="M53 87.5879C52.9662 88.6487 52.9043 89.7058 52.8269 90.7644C52.6041 90.7195 52.4808 90.6355 52.3041 90.4974C52.2546 90.4591 52.2052 90.4208 52.1542 90.3814C52.1097 90.3451 52.0651 90.3088 52.0192 90.2715C51.9845 90.2479 51.9498 90.2243 51.914 90.2C51.7999 90.0439 51.8428 89.8941 51.8606 89.7101C51.8668 89.6398 51.8731 89.5695 51.8795 89.497C51.9025 89.2978 51.9302 89.1005 51.9615 88.9023C51.8954 88.93 51.8293 88.9576 51.7612 88.9862C51.6729 89.0221 51.5847 89.0581 51.4964 89.094C51.453 89.1123 51.4096 89.1305 51.3649 89.1494C51.094 89.2585 50.8761 89.3249 50.5769 89.2857C50.4113 89.1975 50.4113 89.1975 50.2632 89.0803C50.2133 89.0422 50.1634 89.004 50.112 88.9648C50 88.8475 50 88.8475 50 88.6285C50.2923 88.5153 50.5847 88.4024 50.8771 88.2895C50.9764 88.2512 51.0756 88.2129 51.1747 88.1745C52.6904 87.5879 52.6904 87.5879 53 87.5879Z" fill="#08875D"/>
<path d="M23 67.5879C22.9324 69.7095 22.8086 71.8236 22.6538 73.9408C22.2082 73.8512 21.9616 73.6832 21.6082 73.4069C21.5093 73.3303 21.4104 73.2538 21.3084 73.175C21.2193 73.1024 21.1303 73.0298 21.0385 72.955C20.969 72.9079 20.8995 72.8607 20.828 72.8121C20.5999 72.4999 20.6856 72.2003 20.7212 71.8323C20.7336 71.6917 20.7461 71.5511 20.759 71.4062C20.8049 71.0077 20.8603 70.613 20.9231 70.2167C20.7908 70.272 20.6586 70.3274 20.5224 70.3844C20.3459 70.4564 20.1694 70.5282 19.9928 70.6001C19.906 70.6366 19.8192 70.6732 19.7298 70.7109C19.1881 70.929 18.7522 71.0619 18.1538 70.9834C17.8226 70.8071 17.8226 70.8071 17.5264 70.5727C17.4266 70.4964 17.3268 70.4202 17.224 70.3416C17 70.1072 17 70.1072 17 69.669C17.5846 69.4428 18.1694 69.2168 18.7543 68.9911C18.9527 68.9145 19.1511 68.8378 19.3495 68.761C22.3808 67.5879 22.3808 67.5879 23 67.5879Z" fill="#08875D"/>
<path d="M6 106.588C5.94369 108.356 5.8405 110.118 5.71154 111.882C5.34016 111.807 5.13466 111.667 4.84014 111.437C4.75772 111.373 4.67529 111.309 4.59037 111.244C4.51612 111.183 4.44188 111.123 4.36538 111.061C4.3075 111.021 4.24962 110.982 4.18998 110.941C3.99989 110.681 4.07136 110.432 4.10096 110.125C4.11137 110.008 4.12178 109.891 4.13251 109.77C4.17075 109.438 4.21695 109.109 4.26923 108.779C4.15904 108.825 4.04885 108.871 3.93532 108.918C3.78824 108.978 3.64113 109.038 3.49399 109.098C3.42167 109.129 3.34934 109.159 3.27483 109.19C2.82339 109.372 2.46014 109.483 1.96154 109.418C1.68547 109.271 1.68547 109.271 1.4387 109.075C1.35553 109.012 1.27236 108.948 1.18667 108.883C1 108.687 1 108.687 1 108.322C1.4872 108.134 1.97451 107.945 2.46191 107.757C2.62726 107.693 2.79259 107.629 2.95789 107.566C5.48404 106.588 5.48404 106.588 6 106.588Z" fill="#08875D"/>
<path d="M76 112.588C75.9212 115.063 75.7767 117.53 75.5962 120C75.0762 119.895 74.7885 119.699 74.3762 119.377C74.2608 119.287 74.1454 119.198 74.0265 119.106C73.9226 119.021 73.8186 118.937 73.7115 118.85C73.6305 118.795 73.5495 118.74 73.466 118.683C73.1999 118.319 73.2999 117.969 73.3413 117.54C73.3559 117.376 73.3705 117.212 73.3855 117.043C73.4391 116.578 73.5037 116.117 73.5769 115.655C73.4227 115.719 73.2684 115.784 73.1095 115.851C72.9035 115.934 72.6976 116.018 72.4916 116.102C72.3903 116.145 72.2891 116.187 72.1848 116.231C71.5527 116.486 71.0442 116.641 70.3462 116.549C69.9597 116.344 69.9597 116.344 69.6142 116.07C69.4977 115.981 69.3813 115.892 69.2613 115.801C69 115.527 69 115.527 69 115.016C69.6821 114.752 70.3643 114.488 71.0467 114.225C71.2782 114.136 71.5096 114.046 71.741 113.957C75.2777 112.588 75.2777 112.588 76 112.588Z" fill="#08875D"/>
<path d="M55 37.5879C54.9437 39.3559 54.8405 41.1177 54.7115 42.882C54.3402 42.8073 54.1347 42.6673 53.8401 42.437C53.7577 42.3733 53.6753 42.3095 53.5904 42.2438C53.5161 42.1833 53.4419 42.1228 53.3654 42.0605C53.3075 42.0212 53.2496 41.9819 53.19 41.9414C52.9999 41.6812 53.0714 41.4315 53.101 41.1249C53.1114 41.0077 53.1218 40.8905 53.1325 40.7698C53.1708 40.4377 53.217 40.1088 53.2692 39.7786C53.159 39.8247 53.0489 39.8708 52.9353 39.9183C52.7882 39.9783 52.6411 40.0382 52.494 40.098C52.4217 40.1285 52.3493 40.159 52.2748 40.1904C51.8234 40.3722 51.4601 40.4829 50.9615 40.4175C50.6855 40.2706 50.6855 40.2706 50.4387 40.0752C50.3555 40.0117 50.2724 39.9481 50.1867 39.8827C50 39.6873 50 39.6873 50 39.3222C50.4872 39.1336 50.9745 38.9453 51.4619 38.7573C51.6273 38.6934 51.7926 38.6295 51.9579 38.5655C54.484 37.5879 54.484 37.5879 55 37.5879Z" fill="#08875D"/>
</g>
<rect x="98" width="120" height="120" rx="60" fill="#08875D" fill-opacity="0.3"/>
<circle cx="158" cy="60" r="40" fill="#08875D"/>
<path fill-rule="evenodd" clip-rule="evenodd" d="M172.02 51.56C172.422 51.1808 172.44 50.5479 172.061 50.1464C171.681 49.7449 171.049 49.7268 170.647 50.106L151.923 67.7908L145.354 61.5865C144.952 61.2073 144.319 61.2254 143.94 61.6269C143.561 62.0284 143.579 62.6613 143.98 63.0405L151.236 69.8933C151.621 70.2573 152.224 70.2573 152.609 69.8933L172.02 51.56Z" fill="white"/>
<g filter="url(#filter1_f_510_4177)">
<path d="M261 21.5879C260.944 23.3559 260.84 25.1177 260.712 26.882C260.34 26.8073 260.135 26.6673 259.84 26.437C259.758 26.3733 259.675 26.3095 259.59 26.2438C259.516 26.1833 259.442 26.1228 259.365 26.0605C259.308 26.0212 259.25 25.9819 259.19 25.9414C259 25.6812 259.071 25.4315 259.101 25.1249C259.111 25.0077 259.122 24.8905 259.133 24.7698C259.171 24.4377 259.217 24.1088 259.269 23.7786C259.159 23.8247 259.049 23.8708 258.935 23.9183C258.788 23.9783 258.641 24.0382 258.494 24.098C258.422 24.1285 258.349 24.159 258.275 24.1904C257.823 24.3722 257.46 24.4829 256.962 24.4175C256.685 24.2706 256.685 24.2706 256.439 24.0752C256.356 24.0117 256.272 23.9481 256.187 23.8827C256 23.6873 256 23.6873 256 23.3222C256.487 23.1336 256.975 22.9453 257.462 22.7573C257.627 22.6934 257.793 22.6295 257.958 22.5655C260.484 21.5879 260.484 21.5879 261 21.5879Z" fill="#08875D"/>
<path d="M292 87.5879C291.966 88.6487 291.904 89.7058 291.827 90.7644C291.604 90.7195 291.481 90.6355 291.304 90.4974C291.255 90.4591 291.205 90.4208 291.154 90.3814C291.11 90.3451 291.065 90.3088 291.019 90.2715C290.985 90.2479 290.95 90.2243 290.914 90.2C290.8 90.0439 290.843 89.8941 290.861 89.7101C290.867 89.6398 290.873 89.5695 290.88 89.497C290.902 89.2978 290.93 89.1005 290.962 88.9023C290.895 88.93 290.829 88.9576 290.761 88.9862C290.673 89.0221 290.585 89.0581 290.496 89.094C290.453 89.1123 290.41 89.1305 290.365 89.1494C290.094 89.2585 289.876 89.3249 289.577 89.2857C289.411 89.1975 289.411 89.1975 289.263 89.0803C289.213 89.0422 289.163 89.004 289.112 88.9648C289 88.8475 289 88.8475 289 88.6285C289.292 88.5153 289.585 88.4024 289.877 88.2895C289.976 88.2512 290.076 88.2129 290.175 88.1745C291.69 87.5879 291.69 87.5879 292 87.5879Z" fill="#08875D"/>
<path d="M262 67.5879C261.932 69.7095 261.809 71.8236 261.654 73.9408C261.208 73.8512 260.962 73.6832 260.608 73.4069C260.509 73.3303 260.41 73.2538 260.308 73.175C260.219 73.1024 260.13 73.0298 260.038 72.955C259.969 72.9079 259.9 72.8607 259.828 72.8121C259.6 72.4999 259.686 72.2003 259.721 71.8323C259.734 71.6917 259.746 71.5511 259.759 71.4062C259.805 71.0077 259.86 70.613 259.923 70.2167C259.791 70.272 259.659 70.3274 259.522 70.3844C259.346 70.4564 259.169 70.5282 258.993 70.6001C258.906 70.6366 258.819 70.6732 258.73 70.7109C258.188 70.929 257.752 71.0619 257.154 70.9834C256.823 70.8071 256.823 70.8071 256.526 70.5727C256.427 70.4964 256.327 70.4202 256.224 70.3416C256 70.1072 256 70.1072 256 69.669C256.585 69.4428 257.169 69.2168 257.754 68.9911C257.953 68.9145 258.151 68.8378 258.349 68.761C261.381 67.5879 261.381 67.5879 262 67.5879Z" fill="#08875D"/>
<path d="M245 106.588C244.944 108.356 244.84 110.118 244.712 111.882C244.34 111.807 244.135 111.667 243.84 111.437C243.758 111.373 243.675 111.309 243.59 111.244C243.516 111.183 243.442 111.123 243.365 111.061C243.308 111.021 243.25 110.982 243.19 110.941C243 110.681 243.071 110.432 243.101 110.125C243.111 110.008 243.122 109.891 243.133 109.77C243.171 109.438 243.217 109.109 243.269 108.779C243.159 108.825 243.049 108.871 242.935 108.918C242.788 108.978 242.641 109.038 242.494 109.098C242.422 109.129 242.349 109.159 242.275 109.19C241.823 109.372 241.46 109.483 240.962 109.418C240.685 109.271 240.685 109.271 240.439 109.075C240.356 109.012 240.272 108.948 240.187 108.883C240 108.687 240 108.687 240 108.322C240.487 108.134 240.975 107.945 241.462 107.757C241.627 107.693 241.793 107.629 241.958 107.566C244.484 106.588 244.484 106.588 245 106.588Z" fill="#08875D"/>
<path d="M315 112.588C314.921 115.063 314.777 117.53 314.596 120C314.076 119.895 313.789 119.699 313.376 119.377C313.261 119.287 313.145 119.198 313.027 119.106C312.923 119.021 312.819 118.937 312.712 118.85C312.631 118.795 312.549 118.74 312.466 118.683C312.2 118.319 312.3 117.969 312.341 117.54C312.356 117.376 312.37 117.212 312.386 117.043C312.439 116.578 312.504 116.117 312.577 115.655C312.423 115.719 312.268 115.784 312.109 115.851C311.904 115.934 311.698 116.018 311.492 116.102C311.39 116.145 311.289 116.187 311.185 116.231C310.553 116.486 310.044 116.641 309.346 116.549C308.96 116.344 308.96 116.344 308.614 116.07C308.498 115.981 308.381 115.892 308.261 115.801C308 115.527 308 115.527 308 115.016C308.682 114.752 309.364 114.488 310.047 114.225C310.278 114.136 310.51 114.046 310.741 113.957C314.278 112.588 314.278 112.588 315 112.588Z" fill="#08875D"/>
<path d="M294 37.5879C293.944 39.3559 293.84 41.1177 293.712 42.882C293.34 42.8073 293.135 42.6673 292.84 42.437C292.758 42.3733 292.675 42.3095 292.59 42.2438C292.516 42.1833 292.442 42.1228 292.365 42.0605C292.308 42.0212 292.25 41.9819 292.19 41.9414C292 41.6812 292.071 41.4315 292.101 41.1249C292.111 41.0077 292.122 40.8905 292.133 40.7698C292.171 40.4377 292.217 40.1088 292.269 39.7786C292.159 39.8247 292.049 39.8708 291.935 39.9183C291.788 39.9783 291.641 40.0382 291.494 40.098C291.422 40.1285 291.349 40.159 291.275 40.1904C290.823 40.3722 290.46 40.4829 289.962 40.4175C289.685 40.2706 289.685 40.2706 289.439 40.0752C289.356 40.0117 289.272 39.9481 289.187 39.8827C289 39.6873 289 39.6873 289 39.3222C289.487 39.1336 289.975 38.9453 290.462 38.7573C290.627 38.6934 290.793 38.6295 290.958 38.5655C293.484 37.5879 293.484 37.5879 294 37.5879Z" fill="#08875D"/>
</g>
<defs>
<filter id="filter0_f_510_4177" x="0" y="20.5879" width="77" height="100.412" filterUnits="userSpaceOnUse" color-interpolation-filters="sRGB">
<feFlood flood-opacity="0" result="BackgroundImageFix"/>
<feBlend mode="normal" in="SourceGraphic" in2="BackgroundImageFix" result="shape"/>
<feGaussianBlur stdDeviation="0.5" result="effect1_foregroundBlur_510_4177"/>
</filter>
<filter id="filter1_f_510_4177" x="239" y="20.5879" width="77" height="100.412" filterUnits="userSpaceOnUse" color-interpolation-filters="sRGB">
<feFlood flood-opacity="0" result="BackgroundImageFix"/>
<feBlend mode="normal" in="SourceGraphic" in2="BackgroundImageFix" result="shape"/>
<feGaussianBlur stdDeviation="0.5" result="effect1_foregroundBlur_510_4177"/>
</filter>
</defs>
</svg>
